# xmcd CD database file
#
# Track frame offsets:
#	150
#	17380
#	30183
#	41295
#	53292
#	63660
#	73655
#	84284
#	100726
#	110842
#	120849
#	132710
#	144831
#	156900
#	168588
#	180528
#	190059
#	200438
#	212312
#	223721
#	234511
#	245976
#	257496
#	267436
#	280344
#	289276
#	306485
#	319387
#
# Disc length: 4448 seconds
#
# Revision: 0
# Processed by: cddbd v1.5.2PL0 Copyright (c) Steve Scherf et al.
# Submitted via: CDex 1.51
#
DISCID=96115e1c
DTITLE=Anita Carter - Songbird
DYEAR=2009
DGENRE=Country
TTITLE0=2001 (Ballad To The Future)
TTITLE1=Travelin' Minstrel Band
TTITLE2=Set The World On Fire (With Love)
TTITLE3=I Won't Change For You
TTITLE4=It's My Life (And I'll Live It)
TTITLE5=I'm Gonna Leave You
TTITLE6=I've Heard The Wind Blow Before
TTITLE7=Poison Red Berries
TTITLE8=I Don't Need You Anymore
TTITLE9=Hang A Little Sign
TTITLE10=Love Me Now (While I Am Living)
TTITLE11=The Trains Don't Go There Anymore
TTITLE12=No One's Gonna Miss Me (with Waylon Jennings)
TTITLE13=Rings Of Gold (with Waylon Jennings)
TTITLE14=I Got You (with Waylon Jennings)
TTITLE15=All Of You Belongs To Me (with Waylon Jennings)
TTITLE16=Promised To John (with Hank Snow)
TTITLE17=A Song To Mama (The Carter Family featuring Johnny Cash)
TTITLE18=Twelve O'Clock High
TTITLE19=I've Been Loving You Too Long (To Stop Now)
TTITLE20=Carmel By The Sea
TTITLE21=Is It For Me
TTITLE22=I'm Counting On You
TTITLE23=You Weren't Ashamed To Kiss Me (Last Night)
TTITLE24=You Couldn't Get My Love Back (If You Tried)
TTITLE25=Come Back Home (The Carter Family)
TTITLE26=Jubal (The Carter Family)
TTITLE27=Sweet Memories 
EXTD=YEAR: 2009
EXTT0=
EXTT1=
EXTT2=
EXTT3=
EXTT4=
EXTT5=
EXTT6=
EXTT7=
EXTT8=
EXTT9=
EXTT10=
EXTT11=
EXTT12=
EXTT13=
EXTT14=
EXTT15=
EXTT16=
EXTT17=
EXTT18=
EXTT19=
EXTT20=
EXTT21=
EXTT22=
EXTT23=
EXTT24=
EXTT25=
EXTT26=
EXTT27=
PLAYORDER=
